<mxfile host="app.diagrams.net" modified="2022-01-26T08:52:15.020Z" agent="5.0 (Windows NT 10.0; Win64; x64) AppleWebKit/537.36 (KHTML, like Gecko) Chrome/97.0.4692.99 Safari/537.36" etag="NPmzco6x7tdd0OYqNqK5" version="16.4.7" type="gitlab" pages="5">
  <diagram id="yjRn0LX8FntC6SWSUZNE" name="Home_pg">
    <mxGraphModel dx="1303" dy="727" grid="1" gridSize="10" guides="1" tooltips="1" connect="1" arrows="1" fold="1" page="1" pageScale="1" pageWidth="1100" pageHeight="850" math="0" shadow="0">
      <root>
        <mxCell id="ZYHDHWhTVlorWNWRYk4n-0" />
        <mxCell id="ZYHDHWhTVlorWNWRYk4n-1" parent="ZYHDHWhTVlorWNWRYk4n-0" />
        <mxCell id="-HyVUUH3JWEp8CRGB2EV-0" value="" style="whiteSpace=wrap;html=1;rounded=0;shadow=0;labelBackgroundColor=none;strokeColor=#000000;strokeWidth=1;fillColor=none;fontFamily=Verdana;fontSize=12;fontColor=#000000;align=center;comic=1;" parent="ZYHDHWhTVlorWNWRYk4n-1" vertex="1">
          <mxGeometry x="20" y="20" width="1060" height="810" as="geometry" />
        </mxCell>
        <mxCell id="-HyVUUH3JWEp8CRGB2EV-1" value="LOGO" style="whiteSpace=wrap;html=1;rounded=0;shadow=0;labelBackgroundColor=none;strokeWidth=1;fontFamily=Verdana;fontSize=28;align=center;comic=1;" parent="ZYHDHWhTVlorWNWRYk4n-1" vertex="1">
          <mxGeometry x="40" y="60" width="190" height="50" as="geometry" />
        </mxCell>
        <mxCell id="-HyVUUH3JWEp8CRGB2EV-2" value="" style="line;strokeWidth=1;html=1;rounded=0;shadow=0;labelBackgroundColor=none;fillColor=none;fontFamily=Verdana;fontSize=14;fontColor=#000000;align=center;comic=1;" parent="ZYHDHWhTVlorWNWRYk4n-1" vertex="1">
          <mxGeometry x="20" y="140" width="1060" height="10" as="geometry" />
        </mxCell>
        <mxCell id="-HyVUUH3JWEp8CRGB2EV-3" value="" style="whiteSpace=wrap;html=1;rounded=0;shadow=0;labelBackgroundColor=none;strokeWidth=1;fillColor=none;fontFamily=Verdana;fontSize=12;align=center;comic=1;" parent="ZYHDHWhTVlorWNWRYk4n-1" vertex="1">
          <mxGeometry x="30" y="160" width="1040" height="50" as="geometry" />
        </mxCell>
        <mxCell id="-HyVUUH3JWEp8CRGB2EV-4" value="History" style="text;html=1;points=[];align=left;verticalAlign=top;spacingTop=-4;fontSize=14;fontFamily=Verdana" parent="ZYHDHWhTVlorWNWRYk4n-1" vertex="1">
          <mxGeometry x="630" y="175" width="60" height="20" as="geometry" />
        </mxCell>
        <mxCell id="-HyVUUH3JWEp8CRGB2EV-5" value="&lt;b style=&quot;background-color: rgb(153 , 153 , 153)&quot;&gt;&lt;font color=&quot;#ffffff&quot;&gt;Home&lt;/font&gt;&lt;/b&gt;" style="text;html=1;points=[];align=left;verticalAlign=top;spacingTop=-4;fontSize=14;fontFamily=Verdana" parent="ZYHDHWhTVlorWNWRYk4n-1" vertex="1">
          <mxGeometry x="310" y="175" width="60" height="20" as="geometry" />
        </mxCell>
        <mxCell id="-HyVUUH3JWEp8CRGB2EV-6" value="Prediction" style="text;html=1;points=[];align=left;verticalAlign=top;spacingTop=-4;fontSize=14;fontFamily=Verdana" parent="ZYHDHWhTVlorWNWRYk4n-1" vertex="1">
          <mxGeometry x="470" y="175" width="60" height="20" as="geometry" />
        </mxCell>
        <mxCell id="-HyVUUH3JWEp8CRGB2EV-7" value="" style="group" parent="ZYHDHWhTVlorWNWRYk4n-1" vertex="1" connectable="0">
          <mxGeometry x="920" y="167.5" width="110" height="35" as="geometry" />
        </mxCell>
        <mxCell id="-HyVUUH3JWEp8CRGB2EV-8" value="" style="rounded=1;whiteSpace=wrap;html=1;" parent="-HyVUUH3JWEp8CRGB2EV-7" vertex="1">
          <mxGeometry width="110" height="35" as="geometry" />
        </mxCell>
        <mxCell id="-HyVUUH3JWEp8CRGB2EV-9" value="&lt;b&gt;&lt;font style=&quot;font-size: 20px&quot;&gt;LOGIN&lt;/font&gt;&lt;/b&gt;" style="text;html=1;points=[];align=center;verticalAlign=top;spacingTop=-4;fontSize=14;fontFamily=Verdana" parent="-HyVUUH3JWEp8CRGB2EV-7" vertex="1">
          <mxGeometry x="27.5" y="4.375" width="55" height="26.25" as="geometry" />
        </mxCell>
        <mxCell id="-HyVUUH3JWEp8CRGB2EV-10" value="" style="line;strokeWidth=1;html=1;rounded=0;shadow=0;labelBackgroundColor=none;fillColor=none;fontFamily=Verdana;fontSize=14;fontColor=#000000;align=center;comic=1;" parent="ZYHDHWhTVlorWNWRYk4n-1" vertex="1">
          <mxGeometry x="20" y="760" width="1060" height="10" as="geometry" />
        </mxCell>
        <mxCell id="-HyVUUH3JWEp8CRGB2EV-11" value="www.sp.edu.sg" style="text;html=1;points=[];align=left;verticalAlign=top;spacingTop=-4;fontSize=14;fontFamily=Verdana" parent="ZYHDHWhTVlorWNWRYk4n-1" vertex="1">
          <mxGeometry x="40" y="790" width="125" height="20" as="geometry" />
        </mxCell>
        <mxCell id="sxPoIC1-q63x_Nx4Mfk7-1" value="" style="rounded=0;whiteSpace=wrap;html=1;labelBackgroundColor=none;fontSize=18;" parent="ZYHDHWhTVlorWNWRYk4n-1" vertex="1">
          <mxGeometry x="330" y="250" width="700" height="160" as="geometry" />
        </mxCell>
        <mxCell id="sxPoIC1-q63x_Nx4Mfk7-2" value="" style="whiteSpace=wrap;html=1;aspect=fixed;labelBackgroundColor=none;fontSize=18;fillColor=#ffe6cc;strokeColor=#d79b00;" parent="ZYHDHWhTVlorWNWRYk4n-1" vertex="1">
          <mxGeometry x="50" y="250" width="250" height="250" as="geometry" />
        </mxCell>
        <mxCell id="sxPoIC1-q63x_Nx4Mfk7-3" value="" style="whiteSpace=wrap;html=1;aspect=fixed;labelBackgroundColor=none;fontSize=18;fillColor=#ffe6cc;strokeColor=#d79b00;" parent="ZYHDHWhTVlorWNWRYk4n-1" vertex="1">
          <mxGeometry x="830" y="520" width="220" height="220" as="geometry" />
        </mxCell>
        <mxCell id="sxPoIC1-q63x_Nx4Mfk7-4" value="" style="rounded=0;whiteSpace=wrap;html=1;labelBackgroundColor=none;fontSize=18;" parent="ZYHDHWhTVlorWNWRYk4n-1" vertex="1">
          <mxGeometry x="330" y="425" width="700" height="75" as="geometry" />
        </mxCell>
        <mxCell id="sxPoIC1-q63x_Nx4Mfk7-5" value="" style="rounded=0;whiteSpace=wrap;html=1;labelBackgroundColor=none;fontSize=18;" parent="ZYHDHWhTVlorWNWRYk4n-1" vertex="1">
          <mxGeometry x="50" y="520" width="760" height="110" as="geometry" />
        </mxCell>
        <mxCell id="sxPoIC1-q63x_Nx4Mfk7-6" value="" style="rounded=0;whiteSpace=wrap;html=1;labelBackgroundColor=none;fontSize=18;" parent="ZYHDHWhTVlorWNWRYk4n-1" vertex="1">
          <mxGeometry x="50" y="640" width="760" height="100" as="geometry" />
        </mxCell>
      </root>
    </mxGraphModel>
  </diagram>
  <diagram id="_o36L5IaIRZn3_AprTgA" name="Login_pg">
    <mxGraphModel dx="1564" dy="872" grid="1" gridSize="10" guides="1" tooltips="1" connect="1" arrows="1" fold="1" page="1" pageScale="1" pageWidth="1100" pageHeight="850" math="0" shadow="0">
      <root>
        <mxCell id="2mup9dfR0J3uFHoFE13U-0" />
        <mxCell id="2mup9dfR0J3uFHoFE13U-1" parent="2mup9dfR0J3uFHoFE13U-0" />
        <mxCell id="BfVG8Kfv090LWmQHwOVD-0" value="" style="whiteSpace=wrap;html=1;rounded=0;shadow=0;labelBackgroundColor=none;strokeColor=#b85450;strokeWidth=1;fillColor=#f8cecc;fontFamily=Verdana;fontSize=12;align=center;comic=1;" parent="2mup9dfR0J3uFHoFE13U-1" vertex="1">
          <mxGeometry x="20" y="20" width="1060" height="810" as="geometry" />
        </mxCell>
        <mxCell id="BfVG8Kfv090LWmQHwOVD-1" value="" style="line;strokeWidth=1;html=1;rounded=0;shadow=0;labelBackgroundColor=none;fillColor=none;fontFamily=Verdana;fontSize=14;fontColor=#000000;align=center;comic=1;" parent="2mup9dfR0J3uFHoFE13U-1" vertex="1">
          <mxGeometry x="20" y="760" width="1060" height="10" as="geometry" />
        </mxCell>
        <mxCell id="BfVG8Kfv090LWmQHwOVD-2" value="www.sp.edu.sg" style="text;html=1;points=[];align=left;verticalAlign=top;spacingTop=-4;fontSize=14;fontFamily=Verdana" parent="2mup9dfR0J3uFHoFE13U-1" vertex="1">
          <mxGeometry x="40" y="790" width="125" height="20" as="geometry" />
        </mxCell>
        <mxCell id="BfVG8Kfv090LWmQHwOVD-3" value="" style="whiteSpace=wrap;html=1;rounded=0;shadow=0;labelBackgroundColor=none;strokeColor=#d79b00;strokeWidth=1;fillColor=#ffe6cc;fontFamily=Verdana;fontSize=12;align=center;comic=1;" parent="2mup9dfR0J3uFHoFE13U-1" vertex="1">
          <mxGeometry x="90" y="80" width="920" height="640" as="geometry" />
        </mxCell>
        <mxCell id="BfVG8Kfv090LWmQHwOVD-4" value="" style="endArrow=none;html=1;rounded=0;entryX=0.5;entryY=0;entryDx=0;entryDy=0;exitX=0.5;exitY=1;exitDx=0;exitDy=0;" parent="2mup9dfR0J3uFHoFE13U-1" source="BfVG8Kfv090LWmQHwOVD-3" target="BfVG8Kfv090LWmQHwOVD-3" edge="1">
          <mxGeometry width="50" height="50" relative="1" as="geometry">
            <mxPoint x="510" y="490" as="sourcePoint" />
            <mxPoint x="560" y="440" as="targetPoint" />
          </mxGeometry>
        </mxCell>
        <mxCell id="BfVG8Kfv090LWmQHwOVD-5" value="" style="rounded=0;whiteSpace=wrap;html=1;labelBackgroundColor=none;strokeColor=#666666;fillColor=#f5f5f5;fontColor=#333333;" parent="2mup9dfR0J3uFHoFE13U-1" vertex="1">
          <mxGeometry x="110" y="110" width="120" height="60" as="geometry" />
        </mxCell>
        <mxCell id="BfVG8Kfv090LWmQHwOVD-6" value="" style="rounded=0;whiteSpace=wrap;html=1;labelBackgroundColor=none;strokeColor=default;fillColor=#B8EDE3;" parent="2mup9dfR0J3uFHoFE13U-1" vertex="1">
          <mxGeometry x="180" y="250" width="320" height="270" as="geometry" />
        </mxCell>
        <mxCell id="BfVG8Kfv090LWmQHwOVD-7" value="&lt;font style=&quot;font-size: 36px&quot;&gt;WELCOME TO FRUIT DETECTIVE&lt;/font&gt;" style="text;html=1;strokeColor=#d79b00;fillColor=#ffe6cc;align=center;verticalAlign=middle;whiteSpace=wrap;rounded=0;labelBackgroundColor=none;" parent="2mup9dfR0J3uFHoFE13U-1" vertex="1">
          <mxGeometry x="180" y="250" width="330" height="270" as="geometry" />
        </mxCell>
        <mxCell id="BfVG8Kfv090LWmQHwOVD-8" value="" style="rounded=0;whiteSpace=wrap;html=1;labelBackgroundColor=none;fontSize=36;strokeColor=#666666;fillColor=#f5f5f5;fontColor=#333333;" parent="2mup9dfR0J3uFHoFE13U-1" vertex="1">
          <mxGeometry x="650" y="290" width="250" height="60" as="geometry" />
        </mxCell>
        <mxCell id="BfVG8Kfv090LWmQHwOVD-9" value="" style="rounded=0;whiteSpace=wrap;html=1;labelBackgroundColor=none;fontSize=36;strokeColor=#666666;fillColor=#f5f5f5;fontColor=#333333;" parent="2mup9dfR0J3uFHoFE13U-1" vertex="1">
          <mxGeometry x="650" y="410" width="250" height="60" as="geometry" />
        </mxCell>
        <mxCell id="BfVG8Kfv090LWmQHwOVD-12" style="edgeStyle=orthogonalEdgeStyle;rounded=0;orthogonalLoop=1;jettySize=auto;html=1;exitX=0.5;exitY=1;exitDx=0;exitDy=0;fontSize=36;" parent="2mup9dfR0J3uFHoFE13U-1" source="BfVG8Kfv090LWmQHwOVD-9" target="BfVG8Kfv090LWmQHwOVD-9" edge="1">
          <mxGeometry relative="1" as="geometry" />
        </mxCell>
        <mxCell id="BfVG8Kfv090LWmQHwOVD-13" value="" style="rounded=1;whiteSpace=wrap;html=1;labelBackgroundColor=none;fontSize=36;strokeColor=#666666;fillColor=#f5f5f5;fontColor=#333333;" parent="2mup9dfR0J3uFHoFE13U-1" vertex="1">
          <mxGeometry x="675" y="135" width="180" height="60" as="geometry" />
        </mxCell>
        <mxCell id="BfVG8Kfv090LWmQHwOVD-15" value="LOGIN" style="text;html=1;strokeColor=none;fillColor=none;align=center;verticalAlign=middle;whiteSpace=wrap;rounded=0;labelBackgroundColor=none;fontSize=36;" parent="2mup9dfR0J3uFHoFE13U-1" vertex="1">
          <mxGeometry x="650" y="150" width="210" height="30" as="geometry" />
        </mxCell>
        <mxCell id="BfVG8Kfv090LWmQHwOVD-16" value="LOGO" style="text;html=1;strokeColor=none;fillColor=none;align=center;verticalAlign=middle;whiteSpace=wrap;rounded=0;labelBackgroundColor=none;fontSize=36;" parent="2mup9dfR0J3uFHoFE13U-1" vertex="1">
          <mxGeometry x="140" y="125" width="60" height="30" as="geometry" />
        </mxCell>
        <mxCell id="BfVG8Kfv090LWmQHwOVD-19" value="&lt;font style=&quot;font-size: 24px&quot;&gt;LOGIN&lt;/font&gt;" style="rounded=1;fillColor=#F1F2F4;strokeColor=none;html=1;fontColor=#596780;align=center;verticalAlign=middle;fontStyle=0;fontSize=12;sketch=0;labelBackgroundColor=none;" parent="2mup9dfR0J3uFHoFE13U-1" vertex="1">
          <mxGeometry x="722" y="540" width="118" height="33" as="geometry" />
        </mxCell>
        <mxCell id="VsAnuDqw8awkkjqJJa9B-0" value="&lt;span style=&quot;color: rgb(0 , 0 , 0) ; font-family: &amp;#34;helvetica&amp;#34; ; font-size: 18px ; font-style: normal ; font-weight: 400 ; letter-spacing: normal ; text-align: center ; text-indent: 0px ; text-transform: none ; word-spacing: 0px ; display: inline ; float: none&quot;&gt;EMAIL&lt;/span&gt;" style="text;whiteSpace=wrap;html=1;fontSize=18;" parent="2mup9dfR0J3uFHoFE13U-1" vertex="1">
          <mxGeometry x="650" y="250" width="130" height="40" as="geometry" />
        </mxCell>
        <mxCell id="VsAnuDqw8awkkjqJJa9B-1" value="&lt;span style=&quot;color: rgb(0 , 0 , 0) ; font-family: &amp;#34;helvetica&amp;#34; ; font-size: 18px ; font-style: normal ; font-weight: 400 ; letter-spacing: normal ; text-align: center ; text-indent: 0px ; text-transform: none ; word-spacing: 0px ; display: inline ; float: none&quot;&gt;Password&lt;/span&gt;" style="text;whiteSpace=wrap;html=1;fontSize=18;" parent="2mup9dfR0J3uFHoFE13U-1" vertex="1">
          <mxGeometry x="650" y="370" width="130" height="40" as="geometry" />
        </mxCell>
        <mxCell id="VsAnuDqw8awkkjqJJa9B-2" value="" style="rounded=1;whiteSpace=wrap;html=1;labelBackgroundColor=none;fontSize=18;" parent="2mup9dfR0J3uFHoFE13U-1" vertex="1">
          <mxGeometry x="639" y="590" width="284" height="30" as="geometry" />
        </mxCell>
        <mxCell id="VsAnuDqw8awkkjqJJa9B-3" value="Haven&#39;t signed up? Register here" style="text;html=1;strokeColor=none;fillColor=none;align=center;verticalAlign=middle;whiteSpace=wrap;rounded=0;labelBackgroundColor=none;fontSize=18;" parent="2mup9dfR0J3uFHoFE13U-1" vertex="1">
          <mxGeometry x="643.5" y="590" width="275" height="30" as="geometry" />
        </mxCell>
      </root>
    </mxGraphModel>
  </diagram>
  <diagram id="McYFXXbHGxILatLaC3lz" name="Register_pg">
    <mxGraphModel dx="1564" dy="872" grid="1" gridSize="10" guides="1" tooltips="1" connect="1" arrows="1" fold="1" page="1" pageScale="1" pageWidth="1100" pageHeight="850" math="0" shadow="0">
      <root>
        <mxCell id="mvLBFOlt2v21x9k0hT1r-0" />
        <mxCell id="mvLBFOlt2v21x9k0hT1r-1" parent="mvLBFOlt2v21x9k0hT1r-0" />
        <mxCell id="fj-vxE6u5QSTRtewte_O-0" value="" style="whiteSpace=wrap;html=1;rounded=0;shadow=0;labelBackgroundColor=none;strokeColor=#b85450;strokeWidth=1;fillColor=#f8cecc;fontFamily=Verdana;fontSize=12;align=center;comic=1;" parent="mvLBFOlt2v21x9k0hT1r-1" vertex="1">
          <mxGeometry x="20" y="20" width="1060" height="810" as="geometry" />
        </mxCell>
        <mxCell id="fj-vxE6u5QSTRtewte_O-10" value="" style="line;strokeWidth=1;html=1;rounded=0;shadow=0;labelBackgroundColor=none;fillColor=none;fontFamily=Verdana;fontSize=14;fontColor=#000000;align=center;comic=1;" parent="mvLBFOlt2v21x9k0hT1r-1" vertex="1">
          <mxGeometry x="20" y="760" width="1060" height="10" as="geometry" />
        </mxCell>
        <mxCell id="fj-vxE6u5QSTRtewte_O-11" value="www.sp.edu.sg" style="text;html=1;points=[];align=left;verticalAlign=top;spacingTop=-4;fontSize=14;fontFamily=Verdana" parent="mvLBFOlt2v21x9k0hT1r-1" vertex="1">
          <mxGeometry x="40" y="790" width="125" height="20" as="geometry" />
        </mxCell>
        <mxCell id="fj-vxE6u5QSTRtewte_O-12" value="" style="whiteSpace=wrap;html=1;rounded=0;shadow=0;labelBackgroundColor=none;strokeColor=#d79b00;strokeWidth=1;fillColor=#ffe6cc;fontFamily=Verdana;fontSize=12;align=center;comic=1;" parent="mvLBFOlt2v21x9k0hT1r-1" vertex="1">
          <mxGeometry x="90" y="80" width="920" height="640" as="geometry" />
        </mxCell>
        <mxCell id="WnqImUnC4M3s6bVT7C_h-0" value="" style="endArrow=none;html=1;rounded=0;entryX=0.5;entryY=0;entryDx=0;entryDy=0;exitX=0.5;exitY=1;exitDx=0;exitDy=0;" parent="mvLBFOlt2v21x9k0hT1r-1" source="fj-vxE6u5QSTRtewte_O-12" target="fj-vxE6u5QSTRtewte_O-12" edge="1">
          <mxGeometry width="50" height="50" relative="1" as="geometry">
            <mxPoint x="510" y="490" as="sourcePoint" />
            <mxPoint x="560" y="440" as="targetPoint" />
          </mxGeometry>
        </mxCell>
        <mxCell id="WnqImUnC4M3s6bVT7C_h-1" value="" style="rounded=0;whiteSpace=wrap;html=1;labelBackgroundColor=none;" parent="mvLBFOlt2v21x9k0hT1r-1" vertex="1">
          <mxGeometry x="110" y="110" width="120" height="60" as="geometry" />
        </mxCell>
        <mxCell id="WnqImUnC4M3s6bVT7C_h-6" value="" style="rounded=0;whiteSpace=wrap;html=1;labelBackgroundColor=none;strokeColor=default;fillColor=#B8EDE3;" parent="mvLBFOlt2v21x9k0hT1r-1" vertex="1">
          <mxGeometry x="180" y="250" width="320" height="270" as="geometry" />
        </mxCell>
        <mxCell id="WnqImUnC4M3s6bVT7C_h-7" value="&lt;font style=&quot;font-size: 36px&quot;&gt;WELCOME TO FRUIT DETECTIVE&lt;/font&gt;" style="text;html=1;strokeColor=#d79b00;fillColor=#ffe6cc;align=center;verticalAlign=middle;whiteSpace=wrap;rounded=0;labelBackgroundColor=none;" parent="mvLBFOlt2v21x9k0hT1r-1" vertex="1">
          <mxGeometry x="180" y="250" width="320" height="270" as="geometry" />
        </mxCell>
        <mxCell id="WnqImUnC4M3s6bVT7C_h-9" value="" style="rounded=0;whiteSpace=wrap;html=1;labelBackgroundColor=none;fontSize=36;strokeColor=#666666;fillColor=#f5f5f5;fontColor=#333333;" parent="mvLBFOlt2v21x9k0hT1r-1" vertex="1">
          <mxGeometry x="650" y="250" width="250" height="60" as="geometry" />
        </mxCell>
        <mxCell id="WnqImUnC4M3s6bVT7C_h-10" value="" style="rounded=0;whiteSpace=wrap;html=1;labelBackgroundColor=none;fontSize=36;strokeColor=#666666;fillColor=#f5f5f5;fontColor=#333333;" parent="mvLBFOlt2v21x9k0hT1r-1" vertex="1">
          <mxGeometry x="650" y="370" width="250" height="60" as="geometry" />
        </mxCell>
        <mxCell id="WnqImUnC4M3s6bVT7C_h-12" value="" style="rounded=0;whiteSpace=wrap;html=1;labelBackgroundColor=none;fontSize=36;strokeColor=#666666;fillColor=#f5f5f5;fontColor=#333333;" parent="mvLBFOlt2v21x9k0hT1r-1" vertex="1">
          <mxGeometry x="650" y="500" width="250" height="60" as="geometry" />
        </mxCell>
        <mxCell id="WnqImUnC4M3s6bVT7C_h-13" style="edgeStyle=orthogonalEdgeStyle;rounded=0;orthogonalLoop=1;jettySize=auto;html=1;exitX=0.5;exitY=1;exitDx=0;exitDy=0;fontSize=36;" parent="mvLBFOlt2v21x9k0hT1r-1" source="WnqImUnC4M3s6bVT7C_h-10" target="WnqImUnC4M3s6bVT7C_h-10" edge="1">
          <mxGeometry relative="1" as="geometry" />
        </mxCell>
        <mxCell id="WnqImUnC4M3s6bVT7C_h-14" value="" style="rounded=1;whiteSpace=wrap;html=1;labelBackgroundColor=none;fontSize=36;strokeColor=#666666;fillColor=#f5f5f5;fontColor=#333333;" parent="mvLBFOlt2v21x9k0hT1r-1" vertex="1">
          <mxGeometry x="675" y="135" width="180" height="60" as="geometry" />
        </mxCell>
        <mxCell id="WnqImUnC4M3s6bVT7C_h-15" value="SIGN UP" style="text;html=1;strokeColor=none;fillColor=none;align=center;verticalAlign=middle;whiteSpace=wrap;rounded=0;labelBackgroundColor=none;fontSize=36;" parent="mvLBFOlt2v21x9k0hT1r-1" vertex="1">
          <mxGeometry x="670" y="150" width="210" height="30" as="geometry" />
        </mxCell>
        <mxCell id="WnqImUnC4M3s6bVT7C_h-18" value="LOGO" style="text;html=1;strokeColor=none;fillColor=none;align=center;verticalAlign=middle;whiteSpace=wrap;rounded=0;labelBackgroundColor=none;fontSize=36;" parent="mvLBFOlt2v21x9k0hT1r-1" vertex="1">
          <mxGeometry x="140" y="125" width="60" height="30" as="geometry" />
        </mxCell>
        <mxCell id="BP3fMOF19yTM_dTkL7FA-0" value="&lt;font style=&quot;font-size: 24px&quot;&gt;REGISTER&lt;/font&gt;" style="rounded=1;fillColor=#F1F2F4;strokeColor=none;html=1;fontColor=#596780;align=center;verticalAlign=middle;fontStyle=0;fontSize=12;sketch=0;labelBackgroundColor=none;" parent="mvLBFOlt2v21x9k0hT1r-1" vertex="1">
          <mxGeometry x="716" y="650" width="118" height="33" as="geometry" />
        </mxCell>
        <mxCell id="ZwFqeSTGdyVSylIYFtOF-0" value="&lt;font style=&quot;font-size: 18px&quot;&gt;USER NAME&lt;/font&gt;" style="text;html=1;strokeColor=none;fillColor=none;align=center;verticalAlign=middle;whiteSpace=wrap;rounded=0;" parent="mvLBFOlt2v21x9k0hT1r-1" vertex="1">
          <mxGeometry x="650" y="220" width="110" height="30" as="geometry" />
        </mxCell>
        <mxCell id="ZwFqeSTGdyVSylIYFtOF-2" value="&lt;span style=&quot;color: rgb(0 , 0 , 0) ; font-family: &amp;#34;helvetica&amp;#34; ; font-size: 18px ; font-style: normal ; font-weight: 400 ; letter-spacing: normal ; text-align: center ; text-indent: 0px ; text-transform: none ; word-spacing: 0px ; display: inline ; float: none&quot;&gt;EMAIL&lt;/span&gt;" style="text;whiteSpace=wrap;html=1;fontSize=18;" parent="mvLBFOlt2v21x9k0hT1r-1" vertex="1">
          <mxGeometry x="650" y="320" width="130" height="40" as="geometry" />
        </mxCell>
        <mxCell id="ZwFqeSTGdyVSylIYFtOF-4" value="&lt;span style=&quot;color: rgb(0 , 0 , 0) ; font-family: &amp;#34;helvetica&amp;#34; ; font-size: 18px ; font-style: normal ; font-weight: 400 ; letter-spacing: normal ; text-align: center ; text-indent: 0px ; text-transform: none ; word-spacing: 0px ; display: inline ; float: none&quot;&gt;PASSWORD&lt;/span&gt;" style="text;whiteSpace=wrap;html=1;fontSize=18;" parent="mvLBFOlt2v21x9k0hT1r-1" vertex="1">
          <mxGeometry x="650" y="450" width="130" height="40" as="geometry" />
        </mxCell>
      </root>
    </mxGraphModel>
  </diagram>
  <diagram name="Prediction_pg" id="03018318-947c-dd8e-b7a3-06fadd420f32">
    <mxGraphModel dx="1564" dy="872" grid="1" gridSize="10" guides="1" tooltips="1" connect="1" arrows="1" fold="1" page="1" pageScale="1" pageWidth="1100" pageHeight="850" background="none" math="0" shadow="0">
      <root>
        <mxCell id="0" />
        <mxCell id="1" parent="0" />
        <mxCell id="677b7b8949515195-1" value="" style="whiteSpace=wrap;html=1;rounded=0;shadow=0;labelBackgroundColor=none;strokeColor=#000000;strokeWidth=1;fillColor=none;fontFamily=Verdana;fontSize=12;fontColor=#000000;align=center;comic=1;" parent="1" vertex="1">
          <mxGeometry x="20" y="20" width="1060" height="810" as="geometry" />
        </mxCell>
        <mxCell id="fMWtPmxq_f29-b3kCucT-8" value="" style="rounded=0;whiteSpace=wrap;html=1;labelBackgroundColor=#999999;fontSize=20;fontColor=#FFFFFF;strokeColor=default;fillColor=none;" parent="1" vertex="1">
          <mxGeometry x="40" y="250" width="670" height="420" as="geometry" />
        </mxCell>
        <mxCell id="677b7b8949515195-2" value="LOGO" style="whiteSpace=wrap;html=1;rounded=0;shadow=0;labelBackgroundColor=none;strokeWidth=1;fontFamily=Verdana;fontSize=28;align=center;comic=1;" parent="1" vertex="1">
          <mxGeometry x="40" y="60" width="190" height="50" as="geometry" />
        </mxCell>
        <mxCell id="677b7b8949515195-9" value="" style="line;strokeWidth=1;html=1;rounded=0;shadow=0;labelBackgroundColor=none;fillColor=none;fontFamily=Verdana;fontSize=14;fontColor=#000000;align=center;comic=1;" parent="1" vertex="1">
          <mxGeometry x="20" y="140" width="1060" height="10" as="geometry" />
        </mxCell>
        <mxCell id="677b7b8949515195-10" value="" style="whiteSpace=wrap;html=1;rounded=0;shadow=0;labelBackgroundColor=none;strokeWidth=1;fillColor=none;fontFamily=Verdana;fontSize=12;align=center;comic=1;" parent="1" vertex="1">
          <mxGeometry x="30" y="160" width="1040" height="50" as="geometry" />
        </mxCell>
        <mxCell id="677b7b8949515195-11" value="Home" style="text;html=1;points=[];align=left;verticalAlign=top;spacingTop=-4;fontSize=14;fontFamily=Verdana" parent="1" vertex="1">
          <mxGeometry x="330" y="175" width="60" height="20" as="geometry" />
        </mxCell>
        <mxCell id="677b7b8949515195-12" value="&lt;b style=&quot;background-color: rgb(153 , 153 , 153)&quot;&gt;&lt;font color=&quot;#ffffff&quot;&gt;Prediction&lt;/font&gt;&lt;/b&gt;" style="text;html=1;points=[];align=left;verticalAlign=top;spacingTop=-4;fontSize=14;fontFamily=Verdana" parent="1" vertex="1">
          <mxGeometry x="460" y="175" width="60" height="20" as="geometry" />
        </mxCell>
        <mxCell id="677b7b8949515195-13" value="History" style="text;html=1;points=[];align=left;verticalAlign=top;spacingTop=-4;fontSize=14;fontFamily=Verdana" parent="1" vertex="1">
          <mxGeometry x="623" y="175" width="60" height="20" as="geometry" />
        </mxCell>
        <mxCell id="fMWtPmxq_f29-b3kCucT-3" value="" style="group" parent="1" vertex="1" connectable="0">
          <mxGeometry x="920" y="167.5" width="110" height="35" as="geometry" />
        </mxCell>
        <mxCell id="fMWtPmxq_f29-b3kCucT-1" value="" style="rounded=1;whiteSpace=wrap;html=1;" parent="fMWtPmxq_f29-b3kCucT-3" vertex="1">
          <mxGeometry width="110" height="35" as="geometry" />
        </mxCell>
        <mxCell id="677b7b8949515195-14" value="&lt;b&gt;&lt;font style=&quot;font-size: 20px&quot;&gt;LOGIN&lt;/font&gt;&lt;/b&gt;" style="text;html=1;points=[];align=center;verticalAlign=top;spacingTop=-4;fontSize=14;fontFamily=Verdana" parent="fMWtPmxq_f29-b3kCucT-3" vertex="1">
          <mxGeometry x="27.5" y="4.375" width="55" height="26.25" as="geometry" />
        </mxCell>
        <mxCell id="fMWtPmxq_f29-b3kCucT-6" value="" style="sketch=0;outlineConnect=0;fontColor=#232F3E;gradientColor=none;fillColor=#CCCCCC;strokeColor=none;dashed=0;verticalLabelPosition=bottom;verticalAlign=top;align=center;html=1;fontSize=12;fontStyle=0;aspect=fixed;pointerEvents=1;shape=mxgraph.aws4.camera2;labelBackgroundColor=#999999;" parent="1" vertex="1">
          <mxGeometry x="191.52" y="270" width="366.97" height="291.69" as="geometry" />
        </mxCell>
        <mxCell id="fMWtPmxq_f29-b3kCucT-11" value="&lt;p style=&quot;line-height: 0.4&quot;&gt;&lt;/p&gt;&lt;h3 style=&quot;font-size: 17px&quot;&gt;&lt;b&gt;&lt;font style=&quot;font-size: 17px&quot;&gt;PREDICTION OF&amp;nbsp;&lt;/font&gt;&lt;/b&gt;&lt;b&gt;STATE OF FRUIT&lt;/b&gt;&lt;/h3&gt;&lt;p&gt;&lt;/p&gt;" style="text;html=1;points=[];align=center;verticalAlign=top;spacingTop=-4;fontSize=14;fontFamily=Verdana" parent="1" vertex="1">
          <mxGeometry x="730" y="425" width="330" height="80" as="geometry" />
        </mxCell>
        <mxCell id="fMWtPmxq_f29-b3kCucT-15" value="" style="group" parent="1" vertex="1" connectable="0">
          <mxGeometry x="750" y="480.00000000000006" width="290" height="65" as="geometry" />
        </mxCell>
        <mxCell id="fMWtPmxq_f29-b3kCucT-13" value="" style="rounded=1;arcSize=9;align=center;spacingLeft=5;strokeColor=#4C9AFF;html=1;strokeWidth=2;fontSize=12;labelBackgroundColor=#999999;fontColor=#FFFFFF;fillColor=#FFFFFF;" parent="fMWtPmxq_f29-b3kCucT-15" vertex="1">
          <mxGeometry width="290" height="65" as="geometry" />
        </mxCell>
        <mxCell id="fMWtPmxq_f29-b3kCucT-14" value="&lt;font style=&quot;font-size: 28px&quot; color=&quot;#007fff&quot;&gt;&lt;b&gt;Fresh&lt;/b&gt;&lt;/font&gt;" style="text;html=1;points=[];align=center;verticalAlign=top;spacingTop=-4;fontSize=14;fontFamily=Verdana" parent="fMWtPmxq_f29-b3kCucT-15" vertex="1">
          <mxGeometry x="95" y="12.5" width="100" height="45" as="geometry" />
        </mxCell>
        <mxCell id="fMWtPmxq_f29-b3kCucT-16" value="" style="html=1;verticalLabelPosition=bottom;align=center;labelBackgroundColor=#ffffff;verticalAlign=top;strokeWidth=2;strokeColor=#000000;shadow=0;dashed=0;shape=mxgraph.ios7.icons.up;fontSize=17;fontColor=#007FFF;fillColor=#FFFFFF;" parent="1" vertex="1">
          <mxGeometry x="70" y="697.25" width="21" height="25.5" as="geometry" />
        </mxCell>
        <mxCell id="fMWtPmxq_f29-b3kCucT-17" value="Upload an image file" style="text;html=1;points=[];align=left;verticalAlign=top;spacingTop=-4;fontSize=14;fontFamily=Verdana" parent="1" vertex="1">
          <mxGeometry x="105" y="700" width="155" height="20" as="geometry" />
        </mxCell>
        <mxCell id="fMWtPmxq_f29-b3kCucT-18" value="" style="line;strokeWidth=1;html=1;rounded=0;shadow=0;labelBackgroundColor=none;fillColor=none;fontFamily=Verdana;fontSize=14;fontColor=#000000;align=center;comic=1;" parent="1" vertex="1">
          <mxGeometry x="20" y="760" width="1060" height="10" as="geometry" />
        </mxCell>
        <mxCell id="fMWtPmxq_f29-b3kCucT-19" value="&lt;font style=&quot;font-size: 15px&quot;&gt;&lt;b&gt;Choose a file&lt;/b&gt;&lt;/font&gt;" style="rounded=1;html=1;shadow=0;dashed=0;whiteSpace=wrap;fontSize=10;fillColor=#E6E6E6;align=center;strokeColor=#B3B3B3;fontColor=#333333;labelBackgroundColor=none;" parent="1" vertex="1">
          <mxGeometry x="270" y="700" width="170" height="26.88" as="geometry" />
        </mxCell>
        <mxCell id="fMWtPmxq_f29-b3kCucT-21" value="" style="rounded=0;whiteSpace=wrap;html=1;labelBackgroundColor=none;fontSize=15;fontColor=#CCCCCC;strokeColor=#000000;fillColor=#CCCCCC;" parent="1" vertex="1">
          <mxGeometry x="40" y="600" width="670" height="70" as="geometry" />
        </mxCell>
        <mxCell id="fMWtPmxq_f29-b3kCucT-23" value="" style="ellipse;whiteSpace=wrap;html=1;aspect=fixed;labelBackgroundColor=#808080;fontSize=15;fontColor=#CCCCCC;strokeColor=#000000;fillColor=default;" parent="1" vertex="1">
          <mxGeometry x="350" y="610" width="50" height="50" as="geometry" />
        </mxCell>
        <mxCell id="fMWtPmxq_f29-b3kCucT-22" value="" style="shape=image;html=1;verticalAlign=top;verticalLabelPosition=bottom;labelBackgroundColor=#ffffff;imageAspect=0;aspect=fixed;image=https://cdn0.iconfinder.com/data/icons/uiux-001-line/32/UI_UX_UIUX_Camera-128.png;fontSize=15;fontColor=#CCCCCC;strokeColor=#000000;fillColor=none;" parent="1" vertex="1">
          <mxGeometry x="355" y="615" width="40" height="40" as="geometry" />
        </mxCell>
        <mxCell id="fMWtPmxq_f29-b3kCucT-24" value="" style="verticalLabelPosition=bottom;verticalAlign=top;html=1;shadow=0;dashed=0;strokeWidth=1;shape=mxgraph.ios.iDeleteApp;fillColor=#990000;fillColor2=#000000;strokeColor=#ffffff;sketch=0;labelBackgroundColor=#808080;fontSize=15;fontColor=#CCCCCC;" parent="1" vertex="1">
          <mxGeometry x="630.5" y="615" width="45" height="42.5" as="geometry" />
        </mxCell>
        <mxCell id="fMWtPmxq_f29-b3kCucT-25" value="www.sp.edu.sg" style="text;html=1;points=[];align=left;verticalAlign=top;spacingTop=-4;fontSize=14;fontFamily=Verdana" parent="1" vertex="1">
          <mxGeometry x="40" y="790" width="125" height="20" as="geometry" />
        </mxCell>
        <mxCell id="Gge8cqsh0HaDFEIvGAMG-2" value="LOGO" style="whiteSpace=wrap;html=1;rounded=0;shadow=0;labelBackgroundColor=none;strokeWidth=1;fontFamily=Verdana;fontSize=28;align=center;comic=1;" parent="1" vertex="1">
          <mxGeometry x="40" y="60" width="190" height="50" as="geometry" />
        </mxCell>
        <mxCell id="Gge8cqsh0HaDFEIvGAMG-3" value="" style="line;strokeWidth=1;html=1;rounded=0;shadow=0;labelBackgroundColor=none;fillColor=none;fontFamily=Verdana;fontSize=14;fontColor=#000000;align=center;comic=1;" parent="1" vertex="1">
          <mxGeometry x="20" y="140" width="1060" height="10" as="geometry" />
        </mxCell>
        <mxCell id="Gge8cqsh0HaDFEIvGAMG-5" value="Home" style="text;html=1;points=[];align=left;verticalAlign=top;spacingTop=-4;fontSize=14;fontFamily=Verdana" parent="1" vertex="1">
          <mxGeometry x="330" y="175" width="60" height="20" as="geometry" />
        </mxCell>
        <mxCell id="Gge8cqsh0HaDFEIvGAMG-6" value="&lt;b style=&quot;background-color: rgb(153 , 153 , 153)&quot;&gt;&lt;font color=&quot;#ffffff&quot;&gt;Prediction&lt;/font&gt;&lt;/b&gt;" style="text;html=1;points=[];align=left;verticalAlign=top;spacingTop=-4;fontSize=14;fontFamily=Verdana" parent="1" vertex="1">
          <mxGeometry x="460" y="175" width="60" height="20" as="geometry" />
        </mxCell>
      </root>
    </mxGraphModel>
  </diagram>
  <diagram id="XjVUnVbx9LhdBtWr7t4l" name="History_pg">
    <mxGraphModel dx="1955" dy="1090" grid="1" gridSize="10" guides="1" tooltips="1" connect="1" arrows="1" fold="1" page="1" pageScale="1" pageWidth="1100" pageHeight="850" math="0" shadow="0">
      <root>
        <mxCell id="472iqo47ePu4l9zCzUhA-0" />
        <mxCell id="472iqo47ePu4l9zCzUhA-1" parent="472iqo47ePu4l9zCzUhA-0" />
        <mxCell id="YVhj4qkYyNgl5Ved2Jcn-0" value="" style="whiteSpace=wrap;html=1;rounded=0;shadow=0;labelBackgroundColor=none;strokeColor=#000000;strokeWidth=1;fillColor=none;fontFamily=Verdana;fontSize=12;fontColor=#000000;align=center;comic=1;" parent="472iqo47ePu4l9zCzUhA-1" vertex="1">
          <mxGeometry x="20" y="20" width="1060" height="810" as="geometry" />
        </mxCell>
        <mxCell id="YVhj4qkYyNgl5Ved2Jcn-1" value="LOGO" style="whiteSpace=wrap;html=1;rounded=0;shadow=0;labelBackgroundColor=none;strokeWidth=1;fontFamily=Verdana;fontSize=28;align=center;comic=1;" parent="472iqo47ePu4l9zCzUhA-1" vertex="1">
          <mxGeometry x="40" y="60" width="190" height="50" as="geometry" />
        </mxCell>
        <mxCell id="YVhj4qkYyNgl5Ved2Jcn-2" value="" style="line;strokeWidth=1;html=1;rounded=0;shadow=0;labelBackgroundColor=none;fillColor=none;fontFamily=Verdana;fontSize=14;fontColor=#000000;align=center;comic=1;" parent="472iqo47ePu4l9zCzUhA-1" vertex="1">
          <mxGeometry x="20" y="140" width="1060" height="10" as="geometry" />
        </mxCell>
        <mxCell id="YVhj4qkYyNgl5Ved2Jcn-3" value="" style="whiteSpace=wrap;html=1;rounded=0;shadow=0;labelBackgroundColor=none;strokeWidth=1;fillColor=none;fontFamily=Verdana;fontSize=12;align=center;comic=1;" parent="472iqo47ePu4l9zCzUhA-1" vertex="1">
          <mxGeometry x="30" y="160" width="1040" height="50" as="geometry" />
        </mxCell>
        <mxCell id="YVhj4qkYyNgl5Ved2Jcn-4" value="Home" style="text;html=1;points=[];align=left;verticalAlign=top;spacingTop=-4;fontSize=14;fontFamily=Verdana" parent="472iqo47ePu4l9zCzUhA-1" vertex="1">
          <mxGeometry x="330" y="175" width="60" height="20" as="geometry" />
        </mxCell>
        <mxCell id="YVhj4qkYyNgl5Ved2Jcn-5" value="&lt;b style=&quot;background-color: rgb(153 , 153 , 153)&quot;&gt;&lt;font color=&quot;#ffffff&quot;&gt;History&lt;/font&gt;&lt;/b&gt;" style="text;html=1;points=[];align=left;verticalAlign=top;spacingTop=-4;fontSize=14;fontFamily=Verdana" parent="472iqo47ePu4l9zCzUhA-1" vertex="1">
          <mxGeometry x="620" y="175" width="60" height="20" as="geometry" />
        </mxCell>
        <mxCell id="Gy9PIfc01SpS1981YpOa-0" value="Prediction" style="text;html=1;points=[];align=left;verticalAlign=top;spacingTop=-4;fontSize=14;fontFamily=Verdana" parent="472iqo47ePu4l9zCzUhA-1" vertex="1">
          <mxGeometry x="470" y="175" width="60" height="20" as="geometry" />
        </mxCell>
        <mxCell id="Gy9PIfc01SpS1981YpOa-1" value="" style="group" parent="472iqo47ePu4l9zCzUhA-1" vertex="1" connectable="0">
          <mxGeometry x="920" y="167.5" width="110" height="35" as="geometry" />
        </mxCell>
        <mxCell id="Gy9PIfc01SpS1981YpOa-2" value="" style="rounded=1;whiteSpace=wrap;html=1;" parent="Gy9PIfc01SpS1981YpOa-1" vertex="1">
          <mxGeometry width="110" height="35" as="geometry" />
        </mxCell>
        <mxCell id="Gy9PIfc01SpS1981YpOa-3" value="&lt;b&gt;&lt;font style=&quot;font-size: 20px&quot;&gt;LOGIN&lt;/font&gt;&lt;/b&gt;" style="text;html=1;points=[];align=center;verticalAlign=top;spacingTop=-4;fontSize=14;fontFamily=Verdana" parent="Gy9PIfc01SpS1981YpOa-1" vertex="1">
          <mxGeometry x="27.5" y="4.375" width="55" height="26.25" as="geometry" />
        </mxCell>
        <mxCell id="QAT1v1FvuWlmo8HK8w0t-0" value="" style="line;strokeWidth=1;html=1;rounded=0;shadow=0;labelBackgroundColor=none;fillColor=none;fontFamily=Verdana;fontSize=14;fontColor=#000000;align=center;comic=1;" parent="472iqo47ePu4l9zCzUhA-1" vertex="1">
          <mxGeometry x="20" y="760" width="1060" height="10" as="geometry" />
        </mxCell>
        <mxCell id="QAT1v1FvuWlmo8HK8w0t-1" value="www.sp.edu.sg" style="text;html=1;points=[];align=left;verticalAlign=top;spacingTop=-4;fontSize=14;fontFamily=Verdana" parent="472iqo47ePu4l9zCzUhA-1" vertex="1">
          <mxGeometry x="40" y="790" width="125" height="20" as="geometry" />
        </mxCell>
        <mxCell id="13Dnu1PE-nKF7L1Lu_76-0" value="" style="shape=table;startSize=0;container=1;collapsible=0;childLayout=tableLayout;labelBackgroundColor=#808080;fontSize=15;fontColor=#CCCCCC;strokeColor=#000000;fillColor=#97D077;" parent="472iqo47ePu4l9zCzUhA-1" vertex="1">
          <mxGeometry x="80" y="260" width="930" height="450" as="geometry" />
        </mxCell>
        <mxCell id="13Dnu1PE-nKF7L1Lu_76-1" value="" style="shape=tableRow;horizontal=0;startSize=0;swimlaneHead=0;swimlaneBody=0;top=0;left=0;bottom=0;right=0;collapsible=0;dropTarget=0;fillColor=none;points=[[0,0.5],[1,0.5]];portConstraint=eastwest;labelBackgroundColor=#808080;fontSize=15;fontColor=#CCCCCC;strokeColor=#000000;" parent="13Dnu1PE-nKF7L1Lu_76-0" vertex="1">
          <mxGeometry width="930" height="78" as="geometry" />
        </mxCell>
        <mxCell id="13Dnu1PE-nKF7L1Lu_76-2" value="" style="shape=partialRectangle;html=1;whiteSpace=wrap;connectable=0;overflow=hidden;fillColor=none;top=0;left=0;bottom=0;right=0;pointerEvents=1;labelBackgroundColor=#808080;fontSize=15;fontColor=#CCCCCC;strokeColor=#000000;" parent="13Dnu1PE-nKF7L1Lu_76-1" vertex="1">
          <mxGeometry width="233" height="78" as="geometry">
            <mxRectangle width="233" height="78" as="alternateBounds" />
          </mxGeometry>
        </mxCell>
        <mxCell id="13Dnu1PE-nKF7L1Lu_76-3" value="" style="shape=partialRectangle;html=1;whiteSpace=wrap;connectable=0;overflow=hidden;fillColor=none;top=0;left=0;bottom=0;right=0;pointerEvents=1;labelBackgroundColor=#808080;fontSize=15;fontColor=#CCCCCC;strokeColor=#000000;" parent="13Dnu1PE-nKF7L1Lu_76-1" vertex="1">
          <mxGeometry x="233" width="232" height="78" as="geometry">
            <mxRectangle width="232" height="78" as="alternateBounds" />
          </mxGeometry>
        </mxCell>
        <mxCell id="13Dnu1PE-nKF7L1Lu_76-4" value="" style="shape=partialRectangle;html=1;whiteSpace=wrap;connectable=0;overflow=hidden;fillColor=none;top=0;left=0;bottom=0;right=0;pointerEvents=1;labelBackgroundColor=#808080;fontSize=15;fontColor=#CCCCCC;strokeColor=#000000;" parent="13Dnu1PE-nKF7L1Lu_76-1" vertex="1">
          <mxGeometry x="465" width="233" height="78" as="geometry">
            <mxRectangle width="233" height="78" as="alternateBounds" />
          </mxGeometry>
        </mxCell>
        <mxCell id="13Dnu1PE-nKF7L1Lu_76-5" value="" style="shape=partialRectangle;html=1;whiteSpace=wrap;connectable=0;overflow=hidden;fillColor=none;top=0;left=0;bottom=0;right=0;pointerEvents=1;labelBackgroundColor=#808080;fontSize=15;fontColor=#CCCCCC;strokeColor=#000000;" parent="13Dnu1PE-nKF7L1Lu_76-1" vertex="1">
          <mxGeometry x="698" width="232" height="78" as="geometry">
            <mxRectangle width="232" height="78" as="alternateBounds" />
          </mxGeometry>
        </mxCell>
        <mxCell id="13Dnu1PE-nKF7L1Lu_76-6" value="" style="shape=tableRow;horizontal=0;startSize=0;swimlaneHead=0;swimlaneBody=0;top=0;left=0;bottom=0;right=0;collapsible=0;dropTarget=0;fillColor=none;points=[[0,0.5],[1,0.5]];portConstraint=eastwest;labelBackgroundColor=#808080;fontSize=15;fontColor=#CCCCCC;strokeColor=#000000;" parent="13Dnu1PE-nKF7L1Lu_76-0" vertex="1">
          <mxGeometry y="78" width="930" height="132" as="geometry" />
        </mxCell>
        <mxCell id="13Dnu1PE-nKF7L1Lu_76-7" value="" style="shape=partialRectangle;html=1;whiteSpace=wrap;connectable=0;overflow=hidden;fillColor=#D5E8D4;top=0;left=0;bottom=0;right=0;pointerEvents=1;labelBackgroundColor=#808080;fontSize=15;fontColor=#CCCCCC;strokeColor=#000000;" parent="13Dnu1PE-nKF7L1Lu_76-6" vertex="1">
          <mxGeometry width="233" height="132" as="geometry">
            <mxRectangle width="233" height="132" as="alternateBounds" />
          </mxGeometry>
        </mxCell>
        <mxCell id="13Dnu1PE-nKF7L1Lu_76-8" value="" style="shape=partialRectangle;html=1;whiteSpace=wrap;connectable=0;overflow=hidden;fillColor=#D5E8D4;top=0;left=0;bottom=0;right=0;pointerEvents=1;labelBackgroundColor=#808080;fontSize=15;fontColor=#CCCCCC;strokeColor=#000000;" parent="13Dnu1PE-nKF7L1Lu_76-6" vertex="1">
          <mxGeometry x="233" width="232" height="132" as="geometry">
            <mxRectangle width="232" height="132" as="alternateBounds" />
          </mxGeometry>
        </mxCell>
        <mxCell id="13Dnu1PE-nKF7L1Lu_76-9" value="" style="shape=partialRectangle;html=1;whiteSpace=wrap;connectable=0;overflow=hidden;fillColor=#D5E8D4;top=0;left=0;bottom=0;right=0;pointerEvents=1;labelBackgroundColor=#808080;fontSize=15;fontColor=#CCCCCC;strokeColor=#000000;" parent="13Dnu1PE-nKF7L1Lu_76-6" vertex="1">
          <mxGeometry x="465" width="233" height="132" as="geometry">
            <mxRectangle width="233" height="132" as="alternateBounds" />
          </mxGeometry>
        </mxCell>
        <mxCell id="13Dnu1PE-nKF7L1Lu_76-10" value="" style="shape=partialRectangle;html=1;whiteSpace=wrap;connectable=0;overflow=hidden;fillColor=#D5E8D4;top=0;left=0;bottom=0;right=0;pointerEvents=1;labelBackgroundColor=#808080;fontSize=15;fontColor=#CCCCCC;strokeColor=#000000;" parent="13Dnu1PE-nKF7L1Lu_76-6" vertex="1">
          <mxGeometry x="698" width="232" height="132" as="geometry">
            <mxRectangle width="232" height="132" as="alternateBounds" />
          </mxGeometry>
        </mxCell>
        <mxCell id="13Dnu1PE-nKF7L1Lu_76-11" value="" style="shape=tableRow;horizontal=0;startSize=0;swimlaneHead=0;swimlaneBody=0;top=0;left=0;bottom=0;right=0;collapsible=0;dropTarget=0;fillColor=none;points=[[0,0.5],[1,0.5]];portConstraint=eastwest;labelBackgroundColor=#808080;fontSize=15;fontColor=#CCCCCC;strokeColor=#000000;" parent="13Dnu1PE-nKF7L1Lu_76-0" vertex="1">
          <mxGeometry y="210" width="930" height="120" as="geometry" />
        </mxCell>
        <mxCell id="13Dnu1PE-nKF7L1Lu_76-12" value="" style="shape=partialRectangle;html=1;whiteSpace=wrap;connectable=0;overflow=hidden;fillColor=#B9E0A5;top=0;left=0;bottom=0;right=0;pointerEvents=1;labelBackgroundColor=#808080;fontSize=15;fontColor=#CCCCCC;strokeColor=#000000;" parent="13Dnu1PE-nKF7L1Lu_76-11" vertex="1">
          <mxGeometry width="233" height="120" as="geometry">
            <mxRectangle width="233" height="120" as="alternateBounds" />
          </mxGeometry>
        </mxCell>
        <mxCell id="13Dnu1PE-nKF7L1Lu_76-13" value="" style="shape=partialRectangle;html=1;whiteSpace=wrap;connectable=0;overflow=hidden;fillColor=#B9E0A5;top=0;left=0;bottom=0;right=0;pointerEvents=1;labelBackgroundColor=#808080;fontSize=15;fontColor=#CCCCCC;strokeColor=#000000;" parent="13Dnu1PE-nKF7L1Lu_76-11" vertex="1">
          <mxGeometry x="233" width="232" height="120" as="geometry">
            <mxRectangle width="232" height="120" as="alternateBounds" />
          </mxGeometry>
        </mxCell>
        <mxCell id="13Dnu1PE-nKF7L1Lu_76-14" value="" style="shape=partialRectangle;html=1;whiteSpace=wrap;connectable=0;overflow=hidden;fillColor=#B9E0A5;top=0;left=0;bottom=0;right=0;pointerEvents=1;labelBackgroundColor=#808080;fontSize=15;fontColor=#CCCCCC;strokeColor=#000000;" parent="13Dnu1PE-nKF7L1Lu_76-11" vertex="1">
          <mxGeometry x="465" width="233" height="120" as="geometry">
            <mxRectangle width="233" height="120" as="alternateBounds" />
          </mxGeometry>
        </mxCell>
        <mxCell id="13Dnu1PE-nKF7L1Lu_76-15" value="" style="shape=partialRectangle;html=1;whiteSpace=wrap;connectable=0;overflow=hidden;fillColor=#B9E0A5;top=0;left=0;bottom=0;right=0;pointerEvents=1;labelBackgroundColor=#808080;fontSize=15;fontColor=#CCCCCC;strokeColor=#000000;" parent="13Dnu1PE-nKF7L1Lu_76-11" vertex="1">
          <mxGeometry x="698" width="232" height="120" as="geometry">
            <mxRectangle width="232" height="120" as="alternateBounds" />
          </mxGeometry>
        </mxCell>
        <mxCell id="13Dnu1PE-nKF7L1Lu_76-16" value="" style="shape=tableRow;horizontal=0;startSize=0;swimlaneHead=0;swimlaneBody=0;top=0;left=0;bottom=0;right=0;collapsible=0;dropTarget=0;fillColor=none;points=[[0,0.5],[1,0.5]];portConstraint=eastwest;labelBackgroundColor=#808080;fontSize=15;fontColor=#CCCCCC;strokeColor=#000000;" parent="13Dnu1PE-nKF7L1Lu_76-0" vertex="1">
          <mxGeometry y="330" width="930" height="120" as="geometry" />
        </mxCell>
        <mxCell id="13Dnu1PE-nKF7L1Lu_76-17" value="" style="shape=partialRectangle;html=1;whiteSpace=wrap;connectable=0;overflow=hidden;fillColor=#D5E8D4;top=0;left=0;bottom=0;right=0;pointerEvents=1;labelBackgroundColor=#808080;fontSize=15;fontColor=#CCCCCC;strokeColor=#000000;" parent="13Dnu1PE-nKF7L1Lu_76-16" vertex="1">
          <mxGeometry width="233" height="120" as="geometry">
            <mxRectangle width="233" height="120" as="alternateBounds" />
          </mxGeometry>
        </mxCell>
        <mxCell id="13Dnu1PE-nKF7L1Lu_76-18" value="" style="shape=partialRectangle;html=1;whiteSpace=wrap;connectable=0;overflow=hidden;fillColor=#D5E8D4;top=0;left=0;bottom=0;right=0;pointerEvents=1;labelBackgroundColor=#808080;fontSize=15;fontColor=#CCCCCC;strokeColor=#000000;" parent="13Dnu1PE-nKF7L1Lu_76-16" vertex="1">
          <mxGeometry x="233" width="232" height="120" as="geometry">
            <mxRectangle width="232" height="120" as="alternateBounds" />
          </mxGeometry>
        </mxCell>
        <mxCell id="13Dnu1PE-nKF7L1Lu_76-19" value="" style="shape=partialRectangle;html=1;whiteSpace=wrap;connectable=0;overflow=hidden;fillColor=#D5E8D4;top=0;left=0;bottom=0;right=0;pointerEvents=1;labelBackgroundColor=#808080;fontSize=15;fontColor=#CCCCCC;strokeColor=#000000;" parent="13Dnu1PE-nKF7L1Lu_76-16" vertex="1">
          <mxGeometry x="465" width="233" height="120" as="geometry">
            <mxRectangle width="233" height="120" as="alternateBounds" />
          </mxGeometry>
        </mxCell>
        <mxCell id="13Dnu1PE-nKF7L1Lu_76-20" value="" style="shape=partialRectangle;html=1;whiteSpace=wrap;connectable=0;overflow=hidden;fillColor=#D5E8D4;top=0;left=0;bottom=0;right=0;pointerEvents=1;labelBackgroundColor=#808080;fontSize=15;fontColor=#CCCCCC;strokeColor=#000000;" parent="13Dnu1PE-nKF7L1Lu_76-16" vertex="1">
          <mxGeometry x="698" width="232" height="120" as="geometry">
            <mxRectangle width="232" height="120" as="alternateBounds" />
          </mxGeometry>
        </mxCell>
        <mxCell id="13Dnu1PE-nKF7L1Lu_76-31" value="&lt;font style=&quot;font-size: 20px&quot;&gt;&lt;b&gt;Image&lt;/b&gt;&lt;/font&gt;" style="text;html=1;points=[];align=center;verticalAlign=top;spacingTop=-4;fontSize=14;fontFamily=Verdana" parent="472iqo47ePu4l9zCzUhA-1" vertex="1">
          <mxGeometry x="160" y="280" width="80" height="30" as="geometry" />
        </mxCell>
        <mxCell id="13Dnu1PE-nKF7L1Lu_76-34" value="&lt;font style=&quot;font-size: 20px&quot;&gt;&lt;b&gt;Prediction&lt;/b&gt;&lt;/font&gt;" style="text;html=1;points=[];align=center;verticalAlign=top;spacingTop=-4;fontSize=14;fontFamily=Verdana" parent="472iqo47ePu4l9zCzUhA-1" vertex="1">
          <mxGeometry x="390" y="280" width="80" height="30" as="geometry" />
        </mxCell>
        <mxCell id="13Dnu1PE-nKF7L1Lu_76-35" value="&lt;font style=&quot;font-size: 20px&quot;&gt;&lt;b&gt;Date&lt;/b&gt;&lt;/font&gt;" style="text;html=1;points=[];align=center;verticalAlign=top;spacingTop=-4;fontSize=14;fontFamily=Verdana" parent="472iqo47ePu4l9zCzUhA-1" vertex="1">
          <mxGeometry x="620" y="280" width="80" height="30" as="geometry" />
        </mxCell>
        <mxCell id="13Dnu1PE-nKF7L1Lu_76-36" value="&lt;font style=&quot;font-size: 20px&quot;&gt;&lt;b&gt;Remove&lt;/b&gt;&lt;/font&gt;" style="text;html=1;points=[];align=center;verticalAlign=top;spacingTop=-4;fontSize=14;fontFamily=Verdana" parent="472iqo47ePu4l9zCzUhA-1" vertex="1">
          <mxGeometry x="860" y="280" width="80" height="30" as="geometry" />
        </mxCell>
        <mxCell id="13Dnu1PE-nKF7L1Lu_76-37" value="" style="shape=image;html=1;verticalAlign=top;verticalLabelPosition=bottom;labelBackgroundColor=#ffffff;imageAspect=0;aspect=fixed;image=https://cdn0.iconfinder.com/data/icons/octicons/1024/trashcan-128.png;fontSize=20;fontColor=#000000;strokeColor=#000000;fillColor=#B9E0A5;imageBackground=#CC0000;" parent="472iqo47ePu4l9zCzUhA-1" vertex="1">
          <mxGeometry x="870" y="378" width="60" height="60" as="geometry" />
        </mxCell>
        <mxCell id="13Dnu1PE-nKF7L1Lu_76-38" value="" style="shape=image;html=1;verticalAlign=top;verticalLabelPosition=bottom;labelBackgroundColor=#ffffff;imageAspect=0;aspect=fixed;image=https://cdn0.iconfinder.com/data/icons/octicons/1024/trashcan-128.png;fontSize=20;fontColor=#000000;strokeColor=#000000;fillColor=#B9E0A5;imageBackground=#CC0000;" parent="472iqo47ePu4l9zCzUhA-1" vertex="1">
          <mxGeometry x="870" y="624" width="60" height="60" as="geometry" />
        </mxCell>
        <mxCell id="13Dnu1PE-nKF7L1Lu_76-41" value="" style="shape=image;html=1;verticalAlign=top;verticalLabelPosition=bottom;labelBackgroundColor=#ffffff;imageAspect=0;aspect=fixed;image=https://cdn0.iconfinder.com/data/icons/octicons/1024/trashcan-128.png;fontSize=20;fontColor=#000000;strokeColor=#000000;fillColor=#B9E0A5;imageBackground=#CC0000;" parent="472iqo47ePu4l9zCzUhA-1" vertex="1">
          <mxGeometry x="870" y="500" width="60" height="60" as="geometry" />
        </mxCell>
        <mxCell id="13Dnu1PE-nKF7L1Lu_76-42" value="" style="shape=image;html=1;verticalAlign=top;verticalLabelPosition=bottom;labelBackgroundColor=#ffffff;imageAspect=0;aspect=fixed;image=https://cdn4.iconfinder.com/data/icons/fruits-and-veggies-2/225/fruits-and-veggies-icons_lemon-128.png;fontSize=20;fontColor=#000000;strokeColor=#000000;fillColor=#B9E0A5;imageBackground=#FFFF33;" parent="472iqo47ePu4l9zCzUhA-1" vertex="1">
          <mxGeometry x="160" y="360" width="78" height="78" as="geometry" />
        </mxCell>
        <mxCell id="13Dnu1PE-nKF7L1Lu_76-45" value="" style="shape=image;html=1;verticalAlign=top;verticalLabelPosition=bottom;labelBackgroundColor=#ffffff;imageAspect=0;aspect=fixed;image=https://cdn4.iconfinder.com/data/icons/fruits-and-veggies-2/194/fruits-and-veggies-icons_strawberry-128.png;fontSize=20;fontColor=#000000;strokeColor=#000000;fillColor=#B9E0A5;imageBackground=#FF66FF;" parent="472iqo47ePu4l9zCzUhA-1" vertex="1">
          <mxGeometry x="159" y="490" width="80" height="80" as="geometry" />
        </mxCell>
        <mxCell id="13Dnu1PE-nKF7L1Lu_76-46" value="" style="shape=image;html=1;verticalAlign=top;verticalLabelPosition=bottom;labelBackgroundColor=#ffffff;imageAspect=0;aspect=fixed;image=https://cdn4.iconfinder.com/data/icons/fruits-and-veggies-2/219/fruits-and-veggies-icons_apple-128.png;fontSize=20;fontColor=#000000;strokeColor=#000000;fillColor=#B9E0A5;imageBackground=#80FF00;" parent="472iqo47ePu4l9zCzUhA-1" vertex="1">
          <mxGeometry x="159" y="610" width="74" height="74" as="geometry" />
        </mxCell>
        <mxCell id="13Dnu1PE-nKF7L1Lu_76-49" value="Fresh" style="text;html=1;points=[];align=center;verticalAlign=top;spacingTop=-4;fontSize=14;fontFamily=Verdana" parent="472iqo47ePu4l9zCzUhA-1" vertex="1">
          <mxGeometry x="390" y="389" width="60" height="20" as="geometry" />
        </mxCell>
        <mxCell id="13Dnu1PE-nKF7L1Lu_76-50" value="Date1" style="text;html=1;points=[];align=left;verticalAlign=top;spacingTop=-4;fontSize=14;fontFamily=Verdana" parent="472iqo47ePu4l9zCzUhA-1" vertex="1">
          <mxGeometry x="620" y="389" width="60" height="20" as="geometry" />
        </mxCell>
        <mxCell id="13Dnu1PE-nKF7L1Lu_76-51" value="Rotten" style="text;html=1;points=[];align=center;verticalAlign=top;spacingTop=-4;fontSize=14;fontFamily=Verdana" parent="472iqo47ePu4l9zCzUhA-1" vertex="1">
          <mxGeometry x="390" y="520" width="60" height="20" as="geometry" />
        </mxCell>
        <mxCell id="13Dnu1PE-nKF7L1Lu_76-52" value="Date2" style="text;html=1;points=[];align=left;verticalAlign=top;spacingTop=-4;fontSize=14;fontFamily=Verdana" parent="472iqo47ePu4l9zCzUhA-1" vertex="1">
          <mxGeometry x="620" y="520" width="60" height="20" as="geometry" />
        </mxCell>
        <mxCell id="13Dnu1PE-nKF7L1Lu_76-53" value="Fresh" style="text;html=1;points=[];align=center;verticalAlign=top;spacingTop=-4;fontSize=14;fontFamily=Verdana" parent="472iqo47ePu4l9zCzUhA-1" vertex="1">
          <mxGeometry x="390" y="637" width="60" height="20" as="geometry" />
        </mxCell>
        <mxCell id="13Dnu1PE-nKF7L1Lu_76-54" value="Date3" style="text;html=1;points=[];align=left;verticalAlign=top;spacingTop=-4;fontSize=14;fontFamily=Verdana" parent="472iqo47ePu4l9zCzUhA-1" vertex="1">
          <mxGeometry x="620" y="637" width="60" height="20" as="geometry" />
        </mxCell>
      </root>
    </mxGraphModel>
  </diagram>
</mxfile>
